<?xml version="1.0" encoding="iso-8859-1"?>
<!-- Generator: Adobe Illustrator 19.0.0, SVG Export Plug-In . SVG Version: 6.00 Build 0)  -->
<svg version="1.1" id="Layer_1" xmlns="http://www.w3.org/2000/svg" xmlns:xlink="http://www.w3.org/1999/xlink" x="0px" y="0px"
	 viewBox="0 0 451.296 451.296" style="enable-background:new 0 0 451.296 451.296;" xml:space="preserve">
<circle style="fill:#EA8953;" cx="225.638" cy="225.648" r="225.638"/>
<path style="opacity:0.1;enable-background:new    ;" d="M451.296,225.648c0-5.183-0.238-10.307-0.582-15.403l-97.079-97.079
	l-0.017,0.023c-0.917-1.027-2.21-1.708-3.676-1.708h-248.6c-2.774,0-4.983,2.257-4.983,4.983v175.683
	c0,1.493,0.697,2.786,1.751,3.691l-0.029,0.021l153.869,153.868C364.172,436.688,451.296,341.369,451.296,225.648z"/>
<g>
	<path style="fill:#64798A;" d="M96.355,265.292v26.833c0,2.751,2.23,4.982,4.982,4.982h248.601c2.752,0,4.982-2.231,4.982-4.982
		v-26.833H96.355z"/>
	<path style="fill:#64798A;" d="M354.921,116.48c0-2.752-2.231-4.982-4.982-4.982H101.338c-2.752,0-4.982,2.23-4.982,4.982v148.812
		h258.566V116.48z"/>
</g>
<path style="fill:#EBF0F3;" d="M339.281,131.268c0-2.478-1.961-4.487-4.38-4.487H116.375c-2.419,0-4.38,2.008-4.38,4.487v134.025
	h227.285V131.268z"/>
<g>
	<circle style="fill:#3A556A;" cx="225.638" cy="281.2" r="7.163"/>
	<rect x="175.309" y="297.108" style="fill:#3A556A;" width="100.69" height="32.835"/>
</g>
<g>
	<polygon style="fill:#2F4859;" points="175.294,329.943 175.294,297.107 275.983,297.107 	"/>
	<rect x="164.301" y="329.942" style="fill:#2F4859;" width="122.685" height="9.856"/>
</g>
<rect x="111.995" y="261.416" style="fill:#E1E6E9;" width="227.277" height="3.876"/>
<circle style="fill:#DC8744;" cx="201.83" cy="188.395" r="42.076"/>
<circle style="fill:#F6C358;" cx="201.83" cy="188.395" r="34.427"/>
<path style="fill:#DC8744;" d="M200.729,209.545v-3.725c-4.661-0.478-8.844-2.329-12.552-5.564l3.724-4.439
	c2.859,2.483,5.801,3.965,8.827,4.439v-9.899c-3.845-0.918-6.658-2.122-8.443-3.621c-1.786-1.495-2.68-3.716-2.68-6.66
	c0-2.94,1.03-5.348,3.087-7.216c2.057-1.872,4.737-2.894,8.036-3.064v-2.549h3.266v2.604c3.741,0.27,7.279,1.549,10.613,3.824
	l-3.318,4.696c-2.244-1.598-4.677-2.587-7.295-2.96v9.591h0.154c3.911,0.918,6.785,2.163,8.622,3.725
	c1.837,1.566,2.755,3.837,2.755,6.814c0,2.977-1.055,5.397-3.164,7.27c-2.109,1.868-4.898,2.89-8.367,3.06v3.675H200.729z
	 M197.131,176.609c-0.865,0.764-1.299,1.719-1.299,2.857c0,1.142,0.339,2.039,1.019,2.703c0.681,0.664,1.972,1.304,3.878,1.914
	v-8.827C199.199,175.393,197.999,175.845,197.131,176.609z M207.873,198.981c0.951-0.78,1.428-1.769,1.428-2.96
	c0-1.188-0.376-2.134-1.123-2.832c-0.747-0.693-2.142-1.349-4.183-1.964v9.185C205.626,200.24,206.92,199.767,207.873,198.981z"/>
<polygon style="fill:#3A556A;" points="273.987,208.471 289.06,200.712 235.179,178.186 257.706,232.067 265.464,216.995 
	282.978,234.509 291.502,225.985 "/>
<g>
</g>
<g>
</g>
<g>
</g>
<g>
</g>
<g>
</g>
<g>
</g>
<g>
</g>
<g>
</g>
<g>
</g>
<g>
</g>
<g>
</g>
<g>
</g>
<g>
</g>
<g>
</g>
<g>
</g>
</svg>
