<?xml version="1.0" encoding="iso-8859-1"?>
<!-- Generator: Adobe Illustrator 19.0.0, SVG Export Plug-In . SVG Version: 6.00 Build 0)  -->
<svg version="1.1" id="Layer_1" xmlns="http://www.w3.org/2000/svg" xmlns:xlink="http://www.w3.org/1999/xlink" x="0px" y="0px"
	 viewBox="0 0 512 512" style="enable-background:new 0 0 512 512;" xml:space="preserve">
<circle style="fill:#71E2F0;" cx="256" cy="256" r="256"/>
<path style="fill:#2FC1CC;" d="M306.069,84.246c-41.512,66.491-42.598,145.842-60.413,225.196
	c-1.724,12.067-1.724,31.03-13.791,36.202c-24.135,8.62-46.545,18.963-67.232,34.478c-19.335,13.293-41.343,20.578-61.183,30.744
	l94.596,94.546C216.667,509.721,236.068,512,256,512c130.489,0,238.17-97.632,253.993-223.83L306.069,84.246z"/>
<path style="fill:#273B7A;" d="M325.722,132.725c0-38.507-31.216-69.722-69.722-69.722s-69.722,31.216-69.722,69.722
	c0,30.355,26.617,71.661,42.243,98.773c9.537,16.548,0,105.905,0,105.905h54.958c0,0-9.537-89.357,0-105.905
	C299.105,204.386,325.722,163.08,325.722,132.725z"/>
<path style="fill:#121149;" d="M325.722,132.725c0-38.507-31.216-69.722-69.722-69.722v274.399h27.479c0,0-9.537-89.357,0-105.905
	C299.105,204.386,325.722,163.08,325.722,132.725z"/>
<path style="fill:#386895;" d="M111.802,364.922H400.2l-20.206-40.414c-5.291-10.581-16.106-17.267-27.938-17.267h-192.11
	c-11.831,0-22.647,6.685-27.938,17.267L111.802,364.922z"/>
<g>
	<path style="fill:#273B7A;" d="M379.992,324.508c-5.291-10.581-16.106-17.267-27.938-17.267H256v57.68h144.198L379.992,324.508z"/>
	<path style="fill:#273B7A;" d="M112.726,414.52h286.548c7.511,0,13.602-6.089,13.602-13.602v-25.09
		c0-7.511-6.089-13.602-13.602-13.602H112.726c-7.511,0-13.602,6.089-13.602,13.602v25.09
		C99.125,408.429,105.213,414.52,112.726,414.52z"/>
</g>
<path style="fill:#121149;" d="M399.274,362.227H256v52.291h143.274c7.511,0,13.602-6.089,13.602-13.602v-25.088
	C412.875,368.318,406.787,362.227,399.274,362.227z"/>
<g>
</g>
<g>
</g>
<g>
</g>
<g>
</g>
<g>
</g>
<g>
</g>
<g>
</g>
<g>
</g>
<g>
</g>
<g>
</g>
<g>
</g>
<g>
</g>
<g>
</g>
<g>
</g>
<g>
</g>
</svg>
